# xmcd
#
# Track frame offsets:
#	150
#	19567
#	39969
#	52770
#	72746
#	85272
#	100200
#	117550
#	135417
#	153184
#	164168
#	178227
#	195260
#	205366
#	220628
#	236182
#
# Disc length: 3280 seconds
#
# Revision: 0
# Processed by: cddbd v1.5.2PL0 Copyright (c) Steve Scherf et al.
# Submitted via: EasyCDDAExtractor 9.0.0.1
#
DISCID=dc0cce10
DTITLE=East and West - West Coast
DYEAR=1997
DGENRE=Classic Rock
TTITLE0=Peaceful Easy Feelings
TTITLE1=The Boxer
TTITLE2=San Francisco
TTITLE3=You've got a friend
TTITLE4=Teach Your Children
TTITLE5=Herat of gold
TTITLE6=Eli's Song
TTITLE7=Sexy Girl
TTITLE8=A Horse with no name
TTITLE9=Everybody's talking (at me)
TTITLE10=I'm Easy
TTITLE11=Uncle lazy pig
TTITLE12=Last night i had the strangest dream...
TTITLE13=Fire and rain
TTITLE14=Take it easy
TTITLE15=Find the cos of freedom
EXTD=
EXTT0=
EXTT1=
EXTT2=
EXTT3=
EXTT4=
EXTT5=
EXTT6=
EXTT7=
EXTT8=
EXTT9=
EXTT10=
EXTT11=
EXTT12=
EXTT13=
EXTT14=
EXTT15=
PLAYORDER=
